<mxfile host="app.diagrams.net" agent="Mozilla/5.0 (Windows NT 10.0; Win64; x64) AppleWebKit/537.36 (KHTML, like Gecko) Chrome/135.0.0.0 Safari/537.36" version="26.2.14">
  <diagram name="Page-1" id="vu_4zq0_CacOyYf7HeI1">
    <mxGraphModel grid="0" page="1" gridSize="10" guides="1" tooltips="1" connect="1" arrows="1" fold="1" pageScale="1" pageWidth="800" pageHeight="450" math="0" shadow="0">
      <root>
        <mxCell id="0" />
        <mxCell id="1" parent="0" />
        <mxCell id="XsgtjFMtZnnERw2dFV0--4" style="edgeStyle=orthogonalEdgeStyle;rounded=0;orthogonalLoop=1;jettySize=auto;html=1;exitX=0.5;exitY=1;exitDx=0;exitDy=0;entryX=0.5;entryY=0;entryDx=0;entryDy=0;" edge="1" parent="1" source="XsgtjFMtZnnERw2dFV0--1" target="XsgtjFMtZnnERw2dFV0--2">
          <mxGeometry relative="1" as="geometry" />
        </mxCell>
        <mxCell id="XsgtjFMtZnnERw2dFV0--1" value="&lt;font size=&quot;1&quot;&gt;User opens app&lt;/font&gt;" style="ellipse;whiteSpace=wrap;html=1;aspect=fixed;" vertex="1" parent="1">
          <mxGeometry x="370" y="10" width="80" height="80" as="geometry" />
        </mxCell>
        <mxCell id="XsgtjFMtZnnERw2dFV0--5" style="edgeStyle=orthogonalEdgeStyle;rounded=0;orthogonalLoop=1;jettySize=auto;html=1;exitX=0.5;exitY=1;exitDx=0;exitDy=0;entryX=0.5;entryY=0;entryDx=0;entryDy=0;" edge="1" parent="1" source="XsgtjFMtZnnERw2dFV0--2" target="XsgtjFMtZnnERw2dFV0--3">
          <mxGeometry relative="1" as="geometry" />
        </mxCell>
        <mxCell id="XsgtjFMtZnnERw2dFV0--16" style="edgeStyle=orthogonalEdgeStyle;rounded=0;orthogonalLoop=1;jettySize=auto;html=1;exitX=1;exitY=0.5;exitDx=0;exitDy=0;" edge="1" parent="1" source="XsgtjFMtZnnERw2dFV0--2" target="XsgtjFMtZnnERw2dFV0--15">
          <mxGeometry relative="1" as="geometry" />
        </mxCell>
        <mxCell id="XsgtjFMtZnnERw2dFV0--2" value="&lt;span style=&quot;font-size: 11px;&quot;&gt;login page&lt;/span&gt;" style="rounded=1;whiteSpace=wrap;html=1;" vertex="1" parent="1">
          <mxGeometry x="350" y="100" width="120" height="60" as="geometry" />
        </mxCell>
        <mxCell id="XsgtjFMtZnnERw2dFV0--8" style="edgeStyle=orthogonalEdgeStyle;rounded=0;orthogonalLoop=1;jettySize=auto;html=1;" edge="1" parent="1" source="XsgtjFMtZnnERw2dFV0--3" target="XsgtjFMtZnnERw2dFV0--6">
          <mxGeometry relative="1" as="geometry" />
        </mxCell>
        <mxCell id="XsgtjFMtZnnERw2dFV0--9" style="edgeStyle=orthogonalEdgeStyle;rounded=0;orthogonalLoop=1;jettySize=auto;html=1;entryX=1;entryY=0.5;entryDx=0;entryDy=0;" edge="1" parent="1" source="XsgtjFMtZnnERw2dFV0--3" target="XsgtjFMtZnnERw2dFV0--7">
          <mxGeometry relative="1" as="geometry" />
        </mxCell>
        <mxCell id="XsgtjFMtZnnERw2dFV0--14" style="edgeStyle=orthogonalEdgeStyle;rounded=0;orthogonalLoop=1;jettySize=auto;html=1;entryX=0.5;entryY=0;entryDx=0;entryDy=0;" edge="1" parent="1" source="XsgtjFMtZnnERw2dFV0--3" target="XsgtjFMtZnnERw2dFV0--13">
          <mxGeometry relative="1" as="geometry" />
        </mxCell>
        <mxCell id="XsgtjFMtZnnERw2dFV0--21" style="edgeStyle=orthogonalEdgeStyle;rounded=0;orthogonalLoop=1;jettySize=auto;html=1;entryX=1;entryY=0.5;entryDx=0;entryDy=0;" edge="1" parent="1" source="XsgtjFMtZnnERw2dFV0--3" target="XsgtjFMtZnnERw2dFV0--20">
          <mxGeometry relative="1" as="geometry" />
        </mxCell>
        <mxCell id="XsgtjFMtZnnERw2dFV0--3" value="home page" style="rounded=1;whiteSpace=wrap;html=1;" vertex="1" parent="1">
          <mxGeometry x="340" y="180" width="130" height="60" as="geometry" />
        </mxCell>
        <mxCell id="XsgtjFMtZnnERw2dFV0--11" value="" style="edgeStyle=orthogonalEdgeStyle;rounded=0;orthogonalLoop=1;jettySize=auto;html=1;" edge="1" parent="1" source="XsgtjFMtZnnERw2dFV0--6" target="XsgtjFMtZnnERw2dFV0--10">
          <mxGeometry relative="1" as="geometry" />
        </mxCell>
        <mxCell id="XsgtjFMtZnnERw2dFV0--18" style="edgeStyle=orthogonalEdgeStyle;rounded=0;orthogonalLoop=1;jettySize=auto;html=1;entryX=0.25;entryY=0;entryDx=0;entryDy=0;" edge="1" parent="1" source="XsgtjFMtZnnERw2dFV0--6" target="XsgtjFMtZnnERw2dFV0--17">
          <mxGeometry relative="1" as="geometry" />
        </mxCell>
        <mxCell id="XsgtjFMtZnnERw2dFV0--6" value="feed:&lt;div&gt;pulls posts from database&amp;nbsp;&lt;/div&gt;" style="shape=process;whiteSpace=wrap;html=1;backgroundOutline=1;" vertex="1" parent="1">
          <mxGeometry x="520" y="180" width="120" height="60" as="geometry" />
        </mxCell>
        <mxCell id="XsgtjFMtZnnERw2dFV0--7" value="make new post" style="shape=process;whiteSpace=wrap;html=1;backgroundOutline=1;" vertex="1" parent="1">
          <mxGeometry x="150" y="230" width="120" height="60" as="geometry" />
        </mxCell>
        <mxCell id="XsgtjFMtZnnERw2dFV0--19" style="edgeStyle=orthogonalEdgeStyle;rounded=0;orthogonalLoop=1;jettySize=auto;html=1;entryX=0.25;entryY=1;entryDx=0;entryDy=0;" edge="1" parent="1" source="XsgtjFMtZnnERw2dFV0--10" target="XsgtjFMtZnnERw2dFV0--17">
          <mxGeometry relative="1" as="geometry" />
        </mxCell>
        <mxCell id="XsgtjFMtZnnERw2dFV0--10" value="view tag specific feed" style="rounded=1;whiteSpace=wrap;html=1;" vertex="1" parent="1">
          <mxGeometry x="520" y="270" width="120" height="60" as="geometry" />
        </mxCell>
        <mxCell id="XsgtjFMtZnnERw2dFV0--13" value="add friend" style="rounded=1;whiteSpace=wrap;html=1;" vertex="1" parent="1">
          <mxGeometry x="360" y="275" width="100" height="50" as="geometry" />
        </mxCell>
        <mxCell id="XsgtjFMtZnnERw2dFV0--15" value="account creation page" style="rounded=1;whiteSpace=wrap;html=1;" vertex="1" parent="1">
          <mxGeometry x="510" y="100" width="120" height="60" as="geometry" />
        </mxCell>
        <mxCell id="XsgtjFMtZnnERw2dFV0--17" value="download post files" style="rounded=1;whiteSpace=wrap;html=1;" vertex="1" parent="1">
          <mxGeometry x="670" y="230" width="120" height="60" as="geometry" />
        </mxCell>
        <mxCell id="XsgtjFMtZnnERw2dFV0--22" style="edgeStyle=orthogonalEdgeStyle;rounded=0;orthogonalLoop=1;jettySize=auto;html=1;" edge="1" parent="1" source="XsgtjFMtZnnERw2dFV0--20" target="XsgtjFMtZnnERw2dFV0--7">
          <mxGeometry relative="1" as="geometry" />
        </mxCell>
        <mxCell id="XsgtjFMtZnnERw2dFV0--24" style="edgeStyle=orthogonalEdgeStyle;rounded=0;orthogonalLoop=1;jettySize=auto;html=1;entryX=1;entryY=0.5;entryDx=0;entryDy=0;" edge="1" parent="1" source="XsgtjFMtZnnERw2dFV0--20" target="XsgtjFMtZnnERw2dFV0--23">
          <mxGeometry relative="1" as="geometry">
            <mxPoint x="170" y="390" as="targetPoint" />
          </mxGeometry>
        </mxCell>
        <mxCell id="XsgtjFMtZnnERw2dFV0--20" value="view user posts" style="rounded=1;whiteSpace=wrap;html=1;" vertex="1" parent="1">
          <mxGeometry x="150" y="140" width="120" height="60" as="geometry" />
        </mxCell>
        <mxCell id="XsgtjFMtZnnERw2dFV0--23" value="edit posts" style="shape=process;whiteSpace=wrap;html=1;backgroundOutline=1;" vertex="1" parent="1">
          <mxGeometry x="10" y="140" width="120" height="60" as="geometry" />
        </mxCell>
      </root>
    </mxGraphModel>
  </diagram>
</mxfile>
